<svg xmlns="http://www.w3.org/2000/svg" xmlns:xlink="http://www.w3.org/1999/xlink" width="500" zoomAndPan="magnify" viewBox="0 0 375 374.999991" height="500" preserveAspectRatio="xMidYMid meet" version="1.0"><defs><g/><clipPath id="b909eaae91"><path d="M 119.25 95.539062 L 255.75 95.539062 L 255.75 245.539062 L 119.25 245.539062 Z M 119.25 95.539062 " clip-rule="nonzero"/></clipPath></defs><g clip-path="url(#b909eaae91)"><path fill="#5e17eb" d="M 134.65625 95.578125 L 137.253906 95.578125 C 142.773438 95.578125 147.292969 100.09375 147.292969 105.636719 C 147.292969 111.160156 142.773438 115.675781 137.253906 115.675781 L 134.65625 115.675781 C 129.113281 115.675781 124.597656 111.160156 124.597656 105.636719 C 124.597656 100.09375 129.113281 95.578125 134.65625 95.578125 Z M 175.070312 223.871094 L 156.238281 223.871094 C 150.304688 223.871094 145.4375 228.738281 145.4375 234.675781 C 145.4375 240.632812 150.304688 245.5 156.238281 245.5 L 214.570312 245.5 C 230.152344 245.5 243.792969 236.726562 250.773438 223.871094 C 253.9375 218.046875 255.75 211.390625 255.75 204.320312 C 255.75 203.621094 255.726562 202.921875 255.683594 202.222656 C 255.292969 194.214844 252.542969 186.773438 248.15625 180.597656 C 243.507812 174.03125 236.984375 168.878906 229.386719 165.933594 C 231.503906 163.816406 233.402344 161.480469 235.039062 158.949219 C 239.078125 152.6875 241.476562 145.269531 241.585938 137.324219 C 241.585938 137.128906 241.585938 136.929688 241.585938 136.757812 C 241.585938 123.574219 235.300781 111.792969 225.589844 104.242188 C 218.628906 98.808594 209.878906 95.578125 200.40625 95.578125 L 168.175781 95.578125 C 162.632812 95.578125 158.117188 100.09375 158.117188 105.636719 C 158.117188 111.160156 162.632812 115.675781 168.175781 115.675781 L 181.617188 115.675781 C 187.578125 115.675781 192.441406 120.542969 192.441406 126.5 C 192.441406 132.457031 187.578125 137.324219 181.617188 137.324219 L 155.453125 137.324219 C 149.496094 137.324219 144.628906 142.191406 144.628906 148.148438 C 144.628906 154.082031 149.496094 158.949219 155.453125 158.949219 L 201.78125 158.949219 C 207.742188 158.949219 212.605469 163.816406 212.605469 169.773438 C 212.605469 175.730469 207.742188 180.597656 201.78125 180.597656 L 130.074219 180.597656 C 124.117188 180.597656 119.25 185.464844 119.25 191.402344 C 119.25 197.359375 124.117188 202.222656 130.074219 202.222656 L 175.070312 202.222656 C 181.03125 202.222656 185.894531 207.089844 185.894531 213.046875 C 185.894531 219.007812 181.03125 223.871094 175.070312 223.871094 Z M 175.070312 223.871094 " fill-opacity="1" fill-rule="evenodd"/></g><g fill="#ffffff" fill-opacity="1"><g transform="translate(74.533654, 309.765959)"><g><path d="M 20.65625 0 L 2.78125 0 L 2.78125 -24.90625 L 21.03125 -24.90625 C 24.28125 -24.90625 26.953125 -24.757812 29.046875 -24.46875 C 31.140625 -24.175781 32.753906 -23.710938 33.890625 -23.078125 C 35.023438 -22.441406 35.796875 -21.640625 36.203125 -20.671875 C 36.609375 -19.703125 36.8125 -18.539062 36.8125 -17.1875 C 36.78125 -16.113281 36.488281 -15.226562 35.9375 -14.53125 C 35.382812 -13.832031 34.738281 -13.3125 34 -12.96875 C 33.269531 -12.625 32.625 -12.453125 32.0625 -12.453125 C 32.613281 -12.453125 33.253906 -12.34375 33.984375 -12.125 C 34.710938 -11.914062 35.421875 -11.609375 36.109375 -11.203125 C 36.796875 -10.796875 37.367188 -10.300781 37.828125 -9.71875 C 38.285156 -9.144531 38.515625 -8.488281 38.515625 -7.75 C 38.515625 -6.769531 38.398438 -5.875 38.171875 -5.0625 C 37.953125 -4.257812 37.5 -3.546875 36.8125 -2.921875 C 36.132812 -2.296875 35.132812 -1.765625 33.8125 -1.328125 C 32.5 -0.890625 30.773438 -0.554688 28.640625 -0.328125 C 26.503906 -0.109375 23.84375 0 20.65625 0 Z M 20.0625 -14.59375 C 21.59375 -14.59375 22.773438 -14.664062 23.609375 -14.8125 C 24.453125 -14.96875 25.035156 -15.195312 25.359375 -15.5 C 25.679688 -15.8125 25.84375 -16.203125 25.84375 -16.671875 C 25.84375 -17.160156 25.679688 -17.554688 25.359375 -17.859375 C 25.035156 -18.171875 24.453125 -18.398438 23.609375 -18.546875 C 22.773438 -18.691406 21.59375 -18.765625 20.0625 -18.765625 L 13.234375 -18.765625 L 13.234375 -14.59375 Z M 20.0625 -6.15625 C 21.625 -6.15625 22.890625 -6.191406 23.859375 -6.265625 C 24.835938 -6.347656 25.550781 -6.535156 26 -6.828125 C 26.457031 -7.117188 26.6875 -7.585938 26.6875 -8.234375 C 26.6875 -8.878906 26.457031 -9.347656 26 -9.640625 C 25.550781 -9.941406 24.835938 -10.128906 23.859375 -10.203125 C 22.890625 -10.273438 21.625 -10.3125 20.0625 -10.3125 L 13.234375 -10.3125 L 13.234375 -6.15625 Z M 20.0625 -6.15625 "/></g></g></g><g fill="#ffffff" fill-opacity="1"><g transform="translate(120.065205, 309.765959)"><g><path d="M 31.875 0 L 2.78125 0 L 2.78125 -24.921875 L 13.234375 -24.921875 L 13.234375 -6.171875 L 31.875 -6.171875 Z M 31.875 0 "/></g></g></g><g fill="#ffffff" fill-opacity="1"><g transform="translate(158.264844, 309.765959)"><g><path d="M 41.859375 0 L 31.265625 0 L 28.921875 -4.078125 L 13.203125 -4.078125 L 10.859375 0 L 0.265625 0 L 16.203125 -24.90625 L 25.921875 -24.90625 Z M 25.390625 -10.25 L 21.078125 -17.8125 L 16.734375 -10.25 Z M 25.390625 -10.25 "/></g></g></g><g fill="#ffffff" fill-opacity="1"><g transform="translate(206.020293, 309.765959)"><g><path d="M 13.234375 0 L 2.78125 0 L 2.78125 -24.921875 L 13.234375 -24.921875 Z M 13.234375 0 "/></g></g></g><g fill="#ffffff" fill-opacity="1"><g transform="translate(227.662318, 309.765959)"><g><path d="M 16.46875 0.53125 C 13.09375 0.53125 10.375 0.171875 8.3125 -0.546875 C 6.257812 -1.273438 4.691406 -2.269531 3.609375 -3.53125 C 2.535156 -4.800781 1.8125 -6.265625 1.4375 -7.921875 L 12.546875 -7.921875 C 13.367188 -6.742188 14.675781 -6.15625 16.46875 -6.15625 C 18.257812 -6.15625 19.566406 -6.742188 20.390625 -7.921875 C 20.460938 -8.035156 20.5 -8.140625 20.5 -8.234375 C 20.5 -8.546875 20.082031 -8.78125 19.25 -8.9375 C 18.425781 -9.09375 17.191406 -9.210938 15.546875 -9.296875 C 13.472656 -9.390625 11.296875 -9.609375 9.015625 -9.953125 C 3.929688 -10.742188 1.390625 -12.789062 1.390625 -16.09375 C 1.390625 -16.363281 1.40625 -16.65625 1.4375 -16.96875 C 1.8125 -18.625 2.535156 -20.085938 3.609375 -21.359375 C 4.691406 -22.628906 6.257812 -23.625 8.3125 -24.34375 C 10.375 -25.070312 13.09375 -25.4375 16.46875 -25.4375 C 19.84375 -25.4375 22.554688 -25.070312 24.609375 -24.34375 C 26.671875 -23.625 28.238281 -22.628906 29.3125 -21.359375 C 30.394531 -20.085938 31.125 -18.625 31.5 -16.96875 L 20.390625 -16.96875 C 19.566406 -18.15625 18.257812 -18.75 16.46875 -18.75 C 14.675781 -18.75 13.367188 -18.15625 12.546875 -16.96875 C 12.484375 -16.875 12.453125 -16.789062 12.453125 -16.71875 C 12.453125 -16.4375 12.847656 -16.226562 13.640625 -16.09375 C 14.429688 -15.957031 15.597656 -15.84375 17.140625 -15.75 C 18.691406 -15.664062 20.34375 -15.515625 22.09375 -15.296875 C 23.84375 -15.085938 25.476562 -14.726562 27 -14.21875 C 28.53125 -13.707031 29.722656 -12.945312 30.578125 -11.9375 C 31.242188 -11.15625 31.578125 -10.171875 31.578125 -8.984375 C 31.578125 -8.648438 31.550781 -8.296875 31.5 -7.921875 C 31.125 -6.265625 30.394531 -4.800781 29.3125 -3.53125 C 28.238281 -2.269531 26.671875 -1.273438 24.609375 -0.546875 C 22.554688 0.171875 19.84375 0.53125 16.46875 0.53125 Z M 16.46875 0.53125 "/></g></g></g><g fill="#ffffff" fill-opacity="1"><g transform="translate(266.261563, 309.765959)"><g><path d="M 32.796875 0 L 2.78125 0 L 2.78125 -24.921875 L 31.421875 -24.921875 L 31.421875 -18.765625 L 13.234375 -18.765625 L 13.234375 -14.859375 L 28.609375 -14.859375 L 28.609375 -10.0625 L 13.234375 -10.0625 L 13.234375 -6.171875 L 32.796875 -6.171875 Z M 32.796875 0 "/></g></g></g><g fill="#5e17eb" fill-opacity="1"><g transform="translate(114.052227, 333.648033)"><g><path d="M 5.71875 0 L 1.203125 0 L 1.203125 -10.765625 L 8.546875 -10.765625 C 10.296875 -10.765625 11.707031 -10.628906 12.78125 -10.359375 C 13.863281 -10.097656 14.648438 -9.6875 15.140625 -9.125 C 15.640625 -8.5625 15.890625 -7.832031 15.890625 -6.9375 C 15.890625 -6.03125 15.640625 -5.296875 15.140625 -4.734375 C 14.648438 -4.171875 13.863281 -3.757812 12.78125 -3.5 C 11.707031 -3.238281 10.296875 -3.109375 8.546875 -3.109375 L 5.71875 -3.109375 Z M 5.71875 -5.765625 L 8.296875 -5.765625 C 9.015625 -5.765625 9.582031 -5.789062 10 -5.84375 C 10.414062 -5.90625 10.722656 -5.988281 10.921875 -6.09375 C 11.117188 -6.195312 11.242188 -6.320312 11.296875 -6.46875 C 11.347656 -6.613281 11.375 -6.769531 11.375 -6.9375 C 11.375 -7.101562 11.347656 -7.253906 11.296875 -7.390625 C 11.242188 -7.535156 11.117188 -7.660156 10.921875 -7.765625 C 10.722656 -7.867188 10.414062 -7.945312 10 -8 C 9.582031 -8.0625 9.015625 -8.09375 8.296875 -8.09375 L 5.71875 -8.09375 Z M 5.71875 -5.765625 "/></g></g></g><g fill="#5e17eb" fill-opacity="1"><g transform="translate(134.294439, 333.648033)"><g><path d="M 18.078125 0 L 13.5 0 L 12.484375 -1.765625 L 5.703125 -1.765625 L 4.6875 0 L 0.109375 0 L 7 -10.75 L 11.1875 -10.75 Z M 10.96875 -4.421875 L 9.09375 -7.6875 L 7.21875 -4.421875 Z M 10.96875 -4.421875 "/></g></g></g><g fill="#5e17eb" fill-opacity="1"><g transform="translate(156.230284, 333.648033)"><g><path d="M 15.890625 0 L 11.625 0 C 11.425781 -0.269531 11.289062 -0.613281 11.21875 -1.03125 C 11.144531 -1.351562 11.035156 -1.671875 10.890625 -1.984375 C 10.753906 -2.296875 10.515625 -2.554688 10.171875 -2.765625 C 9.828125 -2.972656 9.316406 -3.085938 8.640625 -3.109375 L 5.71875 -3.109375 L 5.71875 0 L 1.203125 0 L 1.203125 -10.765625 L 8.546875 -10.765625 C 10.296875 -10.765625 11.707031 -10.628906 12.78125 -10.359375 C 13.863281 -10.097656 14.648438 -9.6875 15.140625 -9.125 C 15.640625 -8.5625 15.890625 -7.832031 15.890625 -6.9375 C 15.890625 -6.175781 15.71875 -5.535156 15.375 -5.015625 C 15.03125 -4.503906 14.488281 -4.097656 13.75 -3.796875 C 14.46875 -3.503906 14.929688 -3.148438 15.140625 -2.734375 C 15.359375 -2.328125 15.492188 -1.875 15.546875 -1.375 C 15.585938 -0.9375 15.703125 -0.476562 15.890625 0 Z M 5.71875 -5.765625 L 8.296875 -5.765625 C 9.015625 -5.765625 9.582031 -5.796875 10 -5.859375 C 10.414062 -5.929688 10.722656 -6.019531 10.921875 -6.125 C 11.117188 -6.238281 11.242188 -6.363281 11.296875 -6.5 C 11.347656 -6.644531 11.375 -6.789062 11.375 -6.9375 C 11.375 -7.070312 11.347656 -7.207031 11.296875 -7.34375 C 11.242188 -7.488281 11.117188 -7.617188 10.921875 -7.734375 C 10.722656 -7.847656 10.414062 -7.9375 10 -8 C 9.582031 -8.0625 9.015625 -8.09375 8.296875 -8.09375 L 5.71875 -8.09375 Z M 5.71875 -5.765625 "/></g></g></g><g fill="#5e17eb" fill-opacity="1"><g transform="translate(176.472495, 333.648033)"><g><path d="M 18.078125 0 L 13.5 0 L 12.484375 -1.765625 L 5.703125 -1.765625 L 4.6875 0 L 0.109375 0 L 7 -10.75 L 11.1875 -10.75 Z M 10.96875 -4.421875 L 9.09375 -7.6875 L 7.21875 -4.421875 Z M 10.96875 -4.421875 "/></g></g></g><g fill="#5e17eb" fill-opacity="1"><g transform="translate(198.408341, 333.648033)"><g><path d="M 8.40625 0 L 1.203125 0 L 1.203125 -10.765625 L 8.40625 -10.765625 C 11.34375 -10.765625 13.457031 -10.351562 14.75 -9.53125 C 15.789062 -8.863281 16.382812 -7.957031 16.53125 -6.8125 C 16.59375 -6.3125 16.625 -5.832031 16.625 -5.375 C 16.625 -4.914062 16.59375 -4.4375 16.53125 -3.9375 C 16.46875 -3.445312 16.300781 -2.96875 16.03125 -2.5 C 15.757812 -2.03125 15.328125 -1.609375 14.734375 -1.234375 C 14.148438 -0.859375 13.347656 -0.554688 12.328125 -0.328125 C 11.304688 -0.109375 10 0 8.40625 0 Z M 7.96875 -2.65625 C 10.269531 -2.65625 11.566406 -3.238281 11.859375 -4.40625 C 11.941406 -4.726562 11.984375 -5.050781 11.984375 -5.375 C 11.984375 -5.707031 11.941406 -6.035156 11.859375 -6.359375 C 11.773438 -6.679688 11.597656 -6.972656 11.328125 -7.234375 C 11.066406 -7.492188 10.664062 -7.703125 10.125 -7.859375 C 9.59375 -8.015625 8.875 -8.09375 7.96875 -8.09375 L 5.71875 -8.09375 L 5.71875 -2.65625 Z M 7.96875 -2.65625 "/></g></g></g><g fill="#5e17eb" fill-opacity="1"><g transform="translate(219.384956, 333.648033)"><g><path d="M 5.71875 0 L 1.203125 0 L 1.203125 -10.765625 L 5.71875 -10.765625 Z M 5.71875 0 "/></g></g></g><g fill="#5e17eb" fill-opacity="1"><g transform="translate(230.057394, 333.648033)"><g><path d="M 7.109375 0.234375 C 5.648438 0.234375 4.472656 0.078125 3.578125 -0.234375 C 2.691406 -0.546875 2.015625 -0.972656 1.546875 -1.515625 C 1.085938 -2.066406 0.78125 -2.703125 0.625 -3.421875 L 5.421875 -3.421875 C 5.773438 -2.910156 6.335938 -2.65625 7.109375 -2.65625 C 7.878906 -2.65625 8.441406 -2.910156 8.796875 -3.421875 C 8.828125 -3.472656 8.84375 -3.519531 8.84375 -3.5625 C 8.84375 -3.6875 8.664062 -3.78125 8.3125 -3.84375 C 7.957031 -3.914062 7.425781 -3.972656 6.71875 -4.015625 C 5.820312 -4.054688 4.878906 -4.148438 3.890625 -4.296875 C 1.691406 -4.640625 0.59375 -5.519531 0.59375 -6.9375 C 0.59375 -7.0625 0.601562 -7.191406 0.625 -7.328125 C 0.78125 -8.046875 1.085938 -8.675781 1.546875 -9.21875 C 2.015625 -9.769531 2.691406 -10.203125 3.578125 -10.515625 C 4.472656 -10.828125 5.648438 -10.984375 7.109375 -10.984375 C 8.566406 -10.984375 9.738281 -10.828125 10.625 -10.515625 C 11.519531 -10.203125 12.195312 -9.769531 12.65625 -9.21875 C 13.125 -8.675781 13.4375 -8.046875 13.59375 -7.328125 L 8.796875 -7.328125 C 8.441406 -7.835938 7.878906 -8.09375 7.109375 -8.09375 C 6.335938 -8.09375 5.773438 -7.835938 5.421875 -7.328125 C 5.390625 -7.285156 5.375 -7.25 5.375 -7.21875 C 5.375 -7.09375 5.546875 -7 5.890625 -6.9375 C 6.234375 -6.882812 6.738281 -6.835938 7.40625 -6.796875 C 8.070312 -6.765625 8.78125 -6.703125 9.53125 -6.609375 C 10.289062 -6.515625 11 -6.359375 11.65625 -6.140625 C 12.3125 -5.921875 12.828125 -5.59375 13.203125 -5.15625 C 13.492188 -4.820312 13.640625 -4.394531 13.640625 -3.875 C 13.640625 -3.726562 13.625 -3.578125 13.59375 -3.421875 C 13.4375 -2.703125 13.125 -2.066406 12.65625 -1.515625 C 12.195312 -0.972656 11.519531 -0.546875 10.625 -0.234375 C 9.738281 0.078125 8.566406 0.234375 7.109375 0.234375 Z M 7.109375 0.234375 "/></g></g></g><g fill="#5e17eb" fill-opacity="1"><g transform="translate(248.043924, 333.648033)"><g><path d="M 14.15625 0 L 1.203125 0 L 1.203125 -10.765625 L 13.5625 -10.765625 L 13.5625 -8.09375 L 5.71875 -8.09375 L 5.71875 -6.40625 L 12.359375 -6.40625 L 12.359375 -4.34375 L 5.71875 -4.34375 L 5.71875 -2.65625 L 14.15625 -2.65625 Z M 14.15625 0 "/></g></g></g></svg>