<svg xmlns="http://www.w3.org/2000/svg" xmlns:xlink="http://www.w3.org/1999/xlink" width="500" zoomAndPan="magnify" viewBox="0 0 375 374.999991" height="500" preserveAspectRatio="xMidYMid meet" version="1.0"><defs><clipPath id="a7695a6848"><path d="M 16.875 0 L 358.125 0 L 358.125 375 L 16.875 375 Z M 16.875 0 " clip-rule="nonzero"/></clipPath></defs><g clip-path="url(#a7695a6848)"><path fill="#5e17eb" d="M 55.390625 0.0976562 L 61.882812 0.0976562 C 75.6875 0.0976562 86.980469 11.390625 86.980469 25.25 C 86.980469 39.050781 75.6875 50.34375 61.882812 50.34375 L 55.390625 50.34375 C 41.535156 50.34375 30.242188 39.050781 30.242188 25.25 C 30.242188 11.390625 41.535156 0.0976562 55.390625 0.0976562 Z M 156.429688 320.835938 L 109.347656 320.835938 C 94.507812 320.835938 82.34375 333 82.34375 347.839844 C 82.34375 362.734375 94.507812 374.902344 109.347656 374.902344 L 255.175781 374.902344 C 294.128906 374.902344 328.226562 352.96875 345.6875 320.835938 C 353.597656 306.269531 358.125 289.628906 358.125 271.953125 C 358.125 270.207031 358.070312 268.460938 357.960938 266.714844 C 356.980469 246.695312 350.105469 228.089844 339.140625 212.652344 C 327.519531 196.230469 311.207031 183.355469 292.222656 175.988281 C 297.511719 170.695312 302.257812 164.859375 306.351562 158.53125 C 316.445312 142.871094 322.445312 124.324219 322.71875 104.464844 C 322.71875 103.972656 322.71875 103.484375 322.71875 103.046875 C 322.71875 70.09375 307.003906 40.632812 282.726562 21.757812 C 265.324219 8.171875 243.449219 0.0976562 219.769531 0.0976562 L 139.191406 0.0976562 C 125.332031 0.0976562 114.039062 11.390625 114.039062 25.25 C 114.039062 39.050781 125.332031 50.34375 139.191406 50.34375 L 172.796875 50.34375 C 187.691406 50.34375 199.855469 62.511719 199.855469 77.40625 C 199.855469 92.300781 187.691406 104.464844 172.796875 104.464844 L 107.382812 104.464844 C 92.488281 104.464844 80.324219 116.632812 80.324219 131.523438 C 80.324219 146.363281 92.488281 158.53125 107.382812 158.53125 L 223.207031 158.53125 C 238.101562 158.53125 250.265625 170.695312 250.265625 185.589844 C 250.265625 200.484375 238.101562 212.652344 223.207031 212.652344 L 43.933594 212.652344 C 29.042969 212.652344 16.875 224.816406 16.875 239.65625 C 16.875 254.550781 29.042969 266.714844 43.933594 266.714844 L 156.429688 266.714844 C 171.324219 266.714844 183.488281 278.882812 183.488281 293.777344 C 183.488281 308.667969 171.324219 320.835938 156.429688 320.835938 Z M 156.429688 320.835938 " fill-opacity="1" fill-rule="evenodd"/></g></svg>